<?xml version="1.0" encoding="UTF-8"?>
<svg id="Layer_2" data-name="Layer 2" xmlns="http://www.w3.org/2000/svg" viewBox="0 0 1919.78 1658.81">
  <defs>
    <style>
      .cls-1 {
        fill: #fdfdfd;
      }

      .cls-1, .cls-2, .cls-3, .cls-4, .cls-5, .cls-6, .cls-7, .cls-8, .cls-9, .cls-10 {
        stroke-width: 0px;
      }

      .cls-2 {
        fill: #7edafd;
      }

      .cls-3 {
        fill: #03124d;
      }

      .cls-4 {
        fill: #010f4b;
      }

      .cls-5 {
        fill: #03114c;
      }

      .cls-6 {
        fill: #4ab6fe;
      }

      .cls-7 {
        fill: #7edbfe;
      }

      .cls-8 {
        fill: #49b6fd;
      }

      .cls-9 {
        fill: #03114d;
      }

      .cls-10 {
        fill: #bae8fd;
      }
    </style>
  </defs>
  <g id="Layer_1-2" data-name="Layer 1">
    <path class="cls-4" d="M834.91,1658.81c-5.27-1.92-10.85-2.7-16.13-4.74-11.79-4.54-21.9-11.41-29.81-21.16-11.32-13.95-22.24-28.23-33.33-42.37-7.8-9.95-15.27-20.19-23.48-29.78-7.95-9.29-13.66-19.54-17.28-31.18-37.19-119.55-74.47-239.07-111.6-358.64-1.22-3.93-3.23-5.99-6.95-7.53-16.19-6.71-33.2-7.92-50.41-8.32-46.8-1.09-93.6-2.21-140.39-3.43-74.77-1.95-149.54-3.97-224.3-6.01-41.28-1.13-74.19-18.04-99.06-51.34-17.23-23.08-35.48-45.39-53.48-67.88-15.6-19.5-24.92-41.5-27.51-66.34,0-9.5,0-19.01-.01-28.51.63-5.44,1.24-10.89,1.91-16.33,2.85-23.45,5.73-46.9,8.58-70.35,3.11-25.6,6.24-51.2,9.29-76.8,2.86-23.95,5.59-47.92,8.47-71.86,3.12-25.93,6.39-51.85,9.51-77.78,3.24-26.92,6.34-53.85,9.59-80.77,2.71-22.46,5.61-44.9,8.34-67.35,2.35-19.31,4.59-38.64,6.9-57.95,1.7-14.2,3.47-28.4,5.14-42.6,2.2-18.67,4.32-37.34,6.53-56.01,2.17-18.33,4.35-36.66,6.62-54.98,2.11-16.99,3.48-34.14,6.7-50.92,6.74-35.13,25.6-63.26,53.05-85.68,23.98-19.59,51.53-30.89,82.49-33.27,17.26-1.32,34.56-2.03,51.84-3.06,26.73-1.6,53.46-3.26,80.19-4.84,18.28-1.09,36.57-2.07,54.85-3.14,27.58-1.61,55.13-3.77,82.73-4.7,17.31-.59,34.48-2.61,51.75-3.44,26.08-1.24,52.12-3.53,78.21-4.58,18.64-.75,37.19-2.66,55.82-3.46,26.26-1.13,52.48-3.11,78.73-4.67,18.6-1.11,37.21-2.1,55.82-3.18,27.74-1.62,55.48-3.2,83.21-4.95,15.95-1.01,31.95-1.37,47.86-2.63,29.05-2.31,58.14-3.72,87.22-5.38,14.79-.85,29.61-1.34,44.36-2.51,34.02-2.69,68.12-4.15,102.17-6.32,20.43-1.3,40.91-1.88,61.32-3.41,31.37-2.35,62.78-3.99,94.18-5.74,14.96-.83,29.96-1.28,44.86-2.51,32.69-2.69,65.46-3.95,98.17-6.23,24.91-1.73,49.86-2.85,74.78-4.33,32.08-1.9,64.15-3.89,96.22-5.85,17.28-1.06,34.57-2.15,51.84-3.22,7.57-.63,15.14-.15,22.72.08,7.24,1.07,14.54,1.79,21.69,3.26,36.65,7.52,67.42,24.85,90.64,54.74,15.31,19.71,30.38,39.62,46.37,58.76,19.16,22.92,33.96,47.61,37.16,77.99.09,10.67.19,21.36.29,32.04-.55,11.42-.77,22.84-.45,34.26-.51,26.31-1.05,52.62-1.51,78.93-1.36,77.28-2.7,154.57-4.03,231.85-.66,38.31-1.27,76.63-1.91,114.94-1.02,61.47-2.04,122.93-3.05,184.4-.67,40.64-1.07,81.3-2.07,121.93-.42,16.98.16,33.99-1.28,50.95-2.74,32.15-14.97,60.33-36.41,84.19-35.49,39.5-80.6,58.18-133.23,57.64-54.47-.56-108.92-2.6-163.38-4.02-62.61-1.64-125.22-3.32-187.83-4.98-50.46-1.34-100.93-2.46-151.38-4.12-20.04-.66-39.97-1.3-59.48,4.35-37.98,10.99-66.77,33.47-84.16,69.22-44.33,91.14-88.3,182.45-132.41,273.7-15.14,31.31-30.32,62.61-45.37,93.96-11.39,23.73-29.75,38.31-55.72,43.16-.6.11-1.14.54-1.72.83h-19ZM965.35,1260.21c15.91-32.8,31.37-65.83,47.84-98.35,29.03-57.32,76.88-84.88,140.37-85.51,28.63-.28,57.28,1.49,85.93,2.24,93.59,2.48,187.18,4.94,280.78,7.39,52.79,1.38,105.58,2.95,158.38,3.99,25.59.5,50.09-5.25,72.68-17.27,47.96-25.53,76.03-64.34,77.21-119.98,1.23-57.79,1.96-115.6,2.92-173.4,1.01-60.63,2.03-121.26,3.04-181.9,1.33-80.12,2.65-160.24,3.96-240.36,1.21-74.13,2.14-148.26,3.7-222.37.93-44.21-18.28-76.9-55.26-99.61-28.29-17.37-59.57-22.02-92.27-19.84-35.74,2.37-71.5,4.41-107.25,6.55-61.03,3.65-122.06,7.27-183.1,10.91-84.65,5.04-169.3,10.07-253.94,15.11-66.69,3.97-133.37,7.94-200.06,11.91-84.48,5.03-168.96,10.05-253.44,15.08-61.03,3.63-122.06,7.28-183.1,10.89-87.31,5.17-174.63,10.26-261.93,15.53-12.29.74-24.66.65-36.82,2.98-.33-.02-.67-.11-.99-.06-51.93,8.06-98.64,52.51-108.03,104.28-4.18,23.06-6.12,46.54-8.94,69.84-5.21,42.98-10.3,85.97-15.46,128.96-5.5,45.79-11.05,91.58-16.55,137.38-4.51,37.53-8.98,75.06-13.49,112.59-5.5,45.79-11.02,91.59-16.53,137.38-4.52,37.53-9.11,75.04-13.52,112.58-1.94,16.51-4.48,32.93-2.61,49.75,5.05,45.36,39.33,82.25,84.4,90.16,16.35,2.87,32.9,1.98,49.35,2.52,48.94,1.62,97.91,2.72,146.86,4.01,65.94,1.74,131.88,3.69,197.82,5.14,55.27,1.22,101.61,35.59,118.06,88.42,29.95,96.16,59.87,192.33,89.8,288.49,9.21,29.57,18.25,59.18,27.72,88.67,7.39,23,27.72,37.69,51.73,37.46,24.05-.23,40.92-11.88,51.31-33.41,30.62-63.44,61.34-126.84,91.98-190.27,12.53-25.94,24.97-51.92,37.45-77.88Z"/>
    <path class="cls-10" d="M1918.83,261.88c-.33-11.43-.1-22.85.45-34.26,0,0,.13.37.13.37h.38v33.98c-.32-.02-.64-.05-.95-.09Z"/>
    <path class="cls-8" d="M1919.78,227.97h-.38s-.13-.35-.13-.35c-.09-10.69-.19-21.37-.28-32.04.26-.19.53-.4.79-.6v33Z"/>
    <path class="cls-3" d="M0,930.89c.14.64.52.87,1.15.67,0,9.5,0,19.01.01,28.51-.68-.14-1.06.13-1.16.81v-30Z"/>
    <path class="cls-8" d="M1723.81,0c-.22.28-.44.55-.67.83-7.58-.23-15.16-.71-22.73-.08-.22-.23-.43-.48-.61-.75,8,0,16,0,24,0Z"/>
    <path class="cls-7" d="M214.97,104.2c12.17-2.33,24.54-2.24,36.82-2.98,87.3-5.28,174.62-10.36,261.93-15.53,61.03-3.61,122.06-7.26,183.1-10.89,84.48-5.03,168.96-10.05,253.44-15.08,66.69-3.97,133.37-7.94,200.06-11.91,84.65-5.04,169.3-10.07,253.94-15.11,61.03-3.63,122.07-7.25,183.1-10.91,35.75-2.14,71.51-4.18,107.25-6.55,32.7-2.17,63.98,2.47,92.27,19.84,36.98,22.71,56.19,55.4,55.26,99.61-1.56,74.12-2.49,148.25-3.7,222.37-1.31,80.12-2.63,160.24-3.96,240.36-1,60.63-2.03,121.26-3.04,181.9-.96,57.8-1.69,115.61-2.92,173.4-1.18,55.64-29.25,94.45-77.21,119.98-22.59,12.02-47.09,17.78-72.68,17.27-52.8-1.04-105.59-2.61-158.38-3.99-93.59-2.45-187.19-4.9-280.78-7.39-28.64-.76-57.29-2.53-85.93-2.24-63.49.63-111.34,28.19-140.37,85.51-16.47,32.52-31.93,65.55-47.84,98.35-1.37-.59-2.9-.95-4.09-1.79-13.38-9.55-26.84-18.99-40.01-28.81-28.59-21.33-56.75-43.21-84.28-65.91-23.57-19.43-46.67-39.38-69.36-59.81-16.8-15.12-33.24-30.65-49.41-46.44-12.61-12.32-24.97-24.91-37.18-37.65-20.83-21.71-41.36-43.68-61.08-66.39-12.51-14.41-25.14-28.73-37.23-43.49-17.03-20.79-33.7-41.87-49.65-63.51-6.87-9.32-14.37-18.22-20.14-28.33,8.36-7.87,15.41-16.59,18.28-28.04,2.52-10.05.9-19.03-6.26-26.93-8.28-9.13-16.13-18.64-24.48-27.71-2.69-2.92-2.28-4.54.15-7.26,10.39-11.56,19.48-24.12,26.91-37.76,32.15-59.03,43.64-122.19,36.04-188.71-3.6-31.51-13.3-61.35-33.04-86.73-15.96-20.52-33.91-39.49-53.55-56.48-32.83-28.4-72.4-37.35-114.8-36.78-31.72.43-62.12,6.79-91.09,19.8-.08-.49-.1-1.01-.25-1.47-11.14-33.57-20.58-67.63-29.24-101.9-8.33-32.93-15.47-66.13-21.37-99.58-2.01-11.39-4.66-22.71-5.24-34.33ZM1407.69,423.19c-.43,2.07-1.99,3.16-3.13,4.49-62.75,72.61-125.54,145.18-188.26,217.81-7.72,8.94-15.88,17.53-22.4,27.48-10.48,15.97-12.94,33.27-8.92,51.68,1.66,7.63,5.05,14.4,10.52,20.1,8.3,8.65,16.97,17,24.68,26.15,11.81,13.99,27.02,20.08,44.71,21.04,8.81.48,17.65.59,26.47.61,51.15.15,102.3.23,153.45.31,38.82.05,77.64.18,116.46.02,14.14-.06,27.33-3.87,38.89-12.35,21.84-16,25.31-51.4,6.97-70.54-6.68-6.97-13.21-14.09-20.01-20.95-5.39-5.43-10.04-11.62-16.27-16.19-12.81-9.4-27.47-12.1-42.99-12-42.15.29-84.3.44-126.45.6-1.49,0-3.31.79-4.67-1.11,1.04-1.29,2.04-2.59,3.1-3.82,70.32-81.7,140.65-163.39,210.99-245.08,8.97-10.41,14.56-22.31,15.44-36.1,1.05-16.52-1.64-31.82-14.57-43.89-6.19-5.78-11.57-12.44-17.59-18.42-5.99-5.96-10.92-13.06-18.59-17.26-10.02-5.48-20.87-6.51-31.98-6.14-20.31.69-40.62,1.46-60.93,2.17-69.25,2.42-138.51,4.75-207.76,7.3-17.03.63-32.28,6.15-44.53,18.6-15.12,15.36-17.03,46.13.24,62.04,8.19,7.54,15.87,15.74,23.01,24.28,12.72,15.2,28.91,22.05,48.37,21.58,27.48-.66,54.94-1.65,82.42-2.38,7.73-.21,15.46-.03,23.33-.03ZM781.5,801.86c22.58-.04,44.94-2.11,66.78-8.04,51.39-13.95,90.25-43.21,112.19-92.77,11.05-24.97,16.35-51.37,18.2-78.46,5.35-78.29,10.5-156.59,15.66-234.89.92-13.96-1.88-26.95-11.72-37.53-10.32-11.1-20.84-22.01-31.3-32.98-5.3-5.56-11.72-9.25-19.11-11.31-33.85-9.42-67.17,12.56-71.3,47.46-1.68,14.21-2.29,28.56-3.33,42.84-3.91,53.67-7.69,107.35-11.73,161.01-1.4,18.59-1.57,37.33-5,55.72-4.78,25.62-16.75,46.52-41.52,57.46-25.08,11.08-51.03,11.31-77.21,3.73-2.52-.73-3.8-2.07-4.51-4.65-2.23-8.1-3.18-16.34-3.17-24.71.02-16.86,2.14-33.58,3.48-50.34,3.1-39.03,6.41-78.04,9.6-117.06,2.26-27.73,4.58-55.46,6.64-83.2.99-13.28-1.97-25.58-11.31-35.62-10.21-10.97-20.62-21.76-30.95-32.62-5.18-5.45-11.42-9.09-18.68-11.03-31.93-8.54-63.7,12.19-68.16,45.75-3.35,25.24-4.84,50.73-7.08,76.12-3.88,43.98-7.68,87.96-11.56,131.93-2.19,24.9-4.63,49.77-1.55,74.79,3.91,31.8,14.72,60.37,37.96,83.36,5.68,5.62,11.29,11.36,16.47,17.43,21.4,25.09,47.68,42.27,79.82,50.31,20.49,5.13,41.31,7.21,62.38,7.29ZM1169.34,558.79s.02,0,.03,0c3.3-59.55,6.68-119.1,9.84-178.66.7-13.26-2.55-25.58-11.79-35.58-10.62-11.5-21.48-22.78-32.35-34.05-5.7-5.9-12.76-9.57-20.7-11.49-36.59-8.85-69.61,15-72.14,52.75-3.74,55.85-6.91,111.75-10.35,167.62-2.84,46.23-5.73,92.46-8.55,138.69-1.19,19.46-2.61,38.91-3.26,58.38-.46,13.79,3.79,26.31,13.41,36.59,8.65,9.24,17.51,18.29,26.1,27.58,6.75,7.3,13.84,14.07,23.66,16.93,34.36,10.03,68.86-6.9,74.67-45.2,2.95-19.44,2.73-39.2,3.87-58.82,2.63-44.91,5.04-89.82,7.54-134.74Z"/>
    <path class="cls-6" d="M214.97,104.2c.58,11.62,3.23,22.95,5.24,34.33,5.9,33.44,13.04,66.65,21.37,99.58,8.66,34.27,18.11,68.33,29.24,101.9.16.47.17.98.25,1.47-.57.34-1.11.73-1.7,1.02-42.1,20.76-73.85,52.2-94.93,93.95-32.39,64.15-39.79,132.04-27.77,202.32,5.79,33.86,20.19,63.62,44.95,88,6.88,6.78,13.42,13.91,20,20.99,10.25,11.03,21.16,21.23,34.13,29.07,22.59,13.65,47.39,20.1,73.4,22.51,38.87,3.61,76.52-.78,112.06-17.88,3.71-1.79,5.72-1.41,8.44,1.54,10.16,11.02,20.56,21.83,30.97,32.62,4.82,5,10.28,8.64,17.58,9.58,9.44,1.2,17.35-1.71,24.72-7.11,5.77,10.11,13.27,19.01,20.14,28.33,15.95,21.64,32.62,42.72,49.65,63.51,12.09,14.76,24.72,29.08,37.23,43.49,19.72,22.72,40.25,44.68,61.08,66.39,12.22,12.74,24.57,25.33,37.18,37.65,16.17,15.79,32.62,31.32,49.41,46.44,22.69,20.42,45.8,40.37,69.36,59.81,27.53,22.7,55.69,44.58,84.28,65.91,13.17,9.83,26.63,19.26,40.01,28.81,1.19.85,2.72,1.21,4.09,1.79-12.48,25.96-24.92,51.94-37.45,77.88-30.64,63.43-61.36,126.83-91.98,190.27-10.4,21.54-27.26,33.19-51.31,33.41-24.02.23-44.34-14.46-51.73-37.46-9.47-29.48-18.52-59.1-27.72-88.67-29.94-96.16-59.85-192.33-89.8-288.49-16.46-52.83-62.79-87.21-118.06-88.42-65.95-1.45-131.88-3.4-197.82-5.14-48.95-1.29-97.92-2.4-146.86-4.01-16.45-.54-33.01.35-49.35-2.52-45.07-7.92-79.35-44.81-84.4-90.16-1.87-16.82.67-33.24,2.61-49.75,4.41-37.54,9.01-75.06,13.52-112.58,5.51-45.79,11.03-91.59,16.53-137.38,4.51-37.53,8.98-75.06,13.49-112.59,5.5-45.79,11.05-91.58,16.55-137.38,5.17-42.98,10.26-85.98,15.46-128.96,2.82-23.3,4.76-46.78,8.94-69.84,9.39-51.77,56.1-96.22,108.03-104.28.32-.05.66.04.99.06Z"/>
    <path class="cls-5" d="M1407.69,423.19c-7.87,0-15.6-.18-23.33.03-27.47.74-54.94,1.73-82.42,2.38-19.45.46-35.65-6.38-48.37-21.58-7.15-8.54-14.82-16.74-23.01-24.28-17.27-15.9-15.35-46.68-.24-62.04,12.25-12.45,27.5-17.97,44.53-18.6,69.25-2.56,138.51-4.88,207.76-7.3,20.31-.71,40.62-1.48,60.93-2.17,11.11-.38,21.96.65,31.98,6.14,7.67,4.2,12.59,11.3,18.59,17.26,6.02,5.98,11.39,12.63,17.59,18.42,12.93,12.07,15.62,27.37,14.57,43.89-.88,13.79-6.47,25.68-15.44,36.1-70.34,81.68-140.66,163.38-210.99,245.08-1.07,1.24-2.06,2.54-3.1,3.82,1.36,1.9,3.18,1.11,4.67,1.11,42.15-.15,84.3-.31,126.45-.6,15.52-.11,30.18,2.6,42.99,12,6.23,4.57,10.88,10.76,16.27,16.19,6.8,6.86,13.33,13.98,20.01,20.95,18.34,19.14,14.87,54.54-6.97,70.54-11.57,8.47-24.76,12.29-38.89,12.35-38.82.17-77.64.04-116.46-.02-51.15-.07-102.3-.16-153.45-.31-8.82-.03-17.66-.13-26.47-.61-17.69-.96-32.9-7.05-44.71-21.04-7.72-9.15-16.38-17.5-24.68-26.15-5.47-5.7-8.86-12.47-10.52-20.1-4.02-18.41-1.56-35.71,8.92-51.68,6.52-9.95,14.68-18.54,22.4-27.48,62.73-72.63,125.52-145.2,188.26-217.81,1.14-1.32,2.71-2.41,3.13-4.49ZM1200.69,671.89c-11.27,13.94-14.53,29.87-12.01,47.34,2.28,15.86,10.74,26.51,25.92,31.81,8.11,2.83,16.48,4.19,25.01,4.22,96.31.28,192.61.51,288.92.71,11.15.02,21.85-2.18,31.77-7.49,17.27-9.24,24.06-24.18,22.97-43.12-1.07-18.6-11.89-29.7-28.63-35.87-3.26-1.2-6.7-2.04-10.12-2.68-12.4-2.32-24.93-1.05-37.39-1.01-56.48.2-112.96.57-169.44.87-3.41.02-6.82,0-10.7,0,.98-1.71,1.55-2.69,2.12-3.67,1.13-1.2,2.32-2.37,3.4-3.62,81.22-94.33,162.39-188.69,243.67-282.97,11.84-13.73,16.45-29.46,14.41-47.25-2.39-20.89-13.96-32.14-34.99-34.46-4.32-.48-8.64-.56-12.97-.4-43.46,1.57-86.91,3.12-130.37,4.67-45.95,1.64-91.91,3.2-137.86,4.93-13.86.52-26.59,4.66-37.22,13.86-12.69,10.98-16.39,25.22-13.12,41.18,3,14.62,13.58,22.35,26.96,26.83,7.36,2.47,15.02,2.83,22.72,2.62,56.62-1.58,113.24-3.16,169.86-4.71,1.39-.04,2.89-.46,4.61.65-1.19,1.42-2.2,2.67-3.26,3.89-79.01,91.39-158.02,182.78-237.02,274.19-2.6,3.01-5.44,5.86-7.23,9.49Z"/>
    <path class="cls-9" d="M781.5,801.86c-21.07-.07-41.88-2.16-62.38-7.29-32.14-8.04-58.42-25.22-79.82-50.31-5.18-6.08-10.79-11.81-16.47-17.43-23.24-22.99-34.05-51.56-37.96-83.36-3.08-25.03-.64-49.9,1.55-74.79,3.88-43.98,7.68-87.96,11.56-131.93,2.24-25.39,3.74-50.88,7.08-76.12,4.45-33.55,36.23-54.28,68.16-45.75,7.27,1.94,13.5,5.59,18.68,11.03,10.33,10.86,20.74,21.64,30.95,32.62,9.34,10.04,12.29,22.34,11.31,35.62-2.06,27.74-4.37,55.47-6.64,83.2-3.18,39.02-6.49,78.03-9.6,117.06-1.33,16.77-3.46,33.49-3.48,50.34,0,8.36.95,16.6,3.17,24.71.71,2.58,1.99,3.92,4.51,4.65,26.17,7.57,52.12,7.35,77.21-3.73,24.77-10.94,36.73-31.84,41.52-57.46,3.43-18.39,3.6-37.12,5-55.72,4.04-53.66,7.82-107.34,11.73-161.01,1.04-14.29,1.65-28.63,3.33-42.84,4.13-34.9,37.45-56.87,71.3-47.46,7.39,2.06,13.81,5.75,19.11,11.31,10.46,10.97,20.98,21.88,31.3,32.98,9.84,10.59,12.64,23.57,11.72,37.53-5.16,78.3-10.31,156.6-15.66,234.89-1.85,27.09-7.15,53.49-18.2,78.46-21.94,49.57-60.81,78.82-112.19,92.77-21.84,5.93-44.21,8-66.79,8.04ZM680.74,632.74c-1.87-11.39-2.37-22.83-1.39-34.34,1.55-18.26,3.03-36.52,4.53-54.78,3.87-47.14,7.77-94.29,11.6-141.43,1.21-14.94,3.03-29.88,3.21-44.84.3-24.54-15.86-39.81-40.35-39.42-26.09.42-46.61,19.59-49.27,46.54-2.29,23.2-4.11,46.45-6.14,69.68-3.86,44.14-7.8,88.26-11.55,132.41-1.25,14.75-3.22,29.47-3.06,44.32-.87,11.85.08,23.63,1.64,35.36,7.01,52.51,34.43,89.7,85,106.56,56.64,18.88,113.64,17.03,169.09-5.62,35.2-14.38,61.49-39.26,78.3-73.69.71-1.45,1.92-2.77,1.61-4.6.93-1.76,2-3.45,2.76-5.28,7.08-17.01,11.7-34.71,14.13-52.93,4.02-30.08,4.8-60.43,6.97-90.67,3.09-43.04,5.9-86.1,8.66-129.16.91-14.29,2.7-28.56,2.37-42.9-.48-20.86-14.04-36.15-33.95-38.84-31.7-4.29-57.64,16.97-59.94,49.04-5.72,79.76-11.41,159.52-17.25,239.28-1.64,22.36-7.62,43.25-22.76,60.62-10.3,10.06-22.19,17.42-36.14,21.3-17.11,4.76-34.49,5.47-51.98,2.97-29.05-4.15-48.84-19.07-55.68-48.7-.07-.31-.28-.6-.42-.9Z"/>
    <path class="cls-3" d="M512.92,818.08c-7.37,5.4-15.28,8.32-24.72,7.11-7.3-.93-12.76-4.58-17.58-9.58-10.41-10.79-20.81-21.6-30.97-32.62-2.72-2.95-4.73-3.33-8.44-1.54-35.54,17.11-73.2,21.5-112.06,17.88-26-2.42-50.81-8.86-73.4-22.51-12.97-7.84-23.88-18.04-34.13-29.07-6.58-7.08-13.11-14.21-20-20.99-24.76-24.37-39.16-54.13-44.95-88-12.02-70.29-4.62-138.17,27.77-202.32,21.08-41.75,52.83-73.2,94.93-93.95.59-.29,1.14-.68,1.7-1.02,28.97-13.01,59.37-19.37,91.09-19.8,42.41-.58,81.97,8.38,114.8,36.78,19.64,16.99,37.6,35.96,53.55,56.48,19.74,25.38,29.44,55.22,33.04,86.73,7.6,66.52-3.89,129.68-36.04,188.71-7.43,13.64-16.52,26.21-26.91,37.76-2.44,2.71-2.84,4.34-.15,7.26,8.34,9.07,16.2,18.58,24.48,27.71,7.17,7.9,8.79,16.88,6.26,26.93-2.87,11.45-9.93,20.17-18.28,28.04ZM184.78,427.88c-5.29,7.52-9.03,15.87-12.81,24.18-14.58,32.05-21.94,65.92-24.76,100.84-2.77,34.25-1.42,68.26,7.86,101.56,11.79,42.31,36.13,74.56,76.51,93.44,23.01,10.76,47.61,14.51,72.78,15.4,34.92,1.23,68.31-4.79,99.47-21.09,3.42-1.79,5.05-1.1,7.4,1.56,11.12,12.62,21.72,25.68,33.46,37.76,8.91,9.16,23.99,8.16,31.69,2.47,8.81-6.52,15.39-14.7,18.92-25.13,3.24-9.59,1.91-18.15-5.25-25.88-9.17-9.89-17.76-20.31-26.81-30.33-2.23-2.47-2.39-3.89-.02-6.43,14.19-15.19,25.79-32.22,35.1-50.79,8.89-17.74,16.22-36.09,20.62-55.51,4.22-13.55,6.64-27.48,8.49-41.5,4.68-35.45,4.6-70.73-4.55-105.59-11.37-43.27-34.83-77.39-75.19-98.49-23.33-12.2-48.48-17.2-74.61-17.85-48.15-1.2-92.77,9.84-132.15,38.64-23.14,16.93-42.13,37.64-56.17,62.74Z"/>
    <path class="cls-9" d="M1169.34,558.79c-2.5,44.91-4.92,89.83-7.54,134.74-1.15,19.62-.93,39.38-3.87,58.82-5.81,38.31-40.3,55.23-74.67,45.2-9.82-2.87-16.92-9.64-23.66-16.93-8.59-9.29-17.45-18.34-26.1-27.58-9.62-10.28-13.88-22.8-13.41-36.59.65-19.48,2.07-38.93,3.26-58.38,2.82-46.23,5.71-92.46,8.55-138.69,3.43-55.87,6.61-111.77,10.35-167.62,2.52-37.75,35.55-61.61,72.14-52.75,7.94,1.92,15.01,5.59,20.7,11.49,10.87,11.26,21.73,22.55,32.35,34.05,9.24,10,12.49,22.32,11.79,35.58-3.17,59.56-6.54,119.11-9.84,178.66-.01,0-.02,0-.03,0ZM1125.42,674.84c2.15-37.73,4.33-75.47,6.46-113.2,3.21-57.03,6.4-114.06,9.57-171.09.85-15.3,2.09-30.59,2.26-45.9.22-19.89-10.7-35.56-28.09-40.36-32.73-9.03-65.63,9.92-68.53,46.51-2.2,27.72-3.5,55.51-5.21,83.27-3.18,51.69-6.39,103.38-9.55,155.08-1.73,28.25-3.38,56.51-5.07,84.76-1.09,14.76-2.77,29.51-2.45,44.31.41,18.82,8.16,33.94,26.15,41.26,25.18,10.25,62.38,2.22,70.91-36.47,3.48-15.79,2.79-32.08,3.53-48.17Z"/>
    <path class="cls-1" d="M1200.69,671.89c1.79-3.63,4.63-6.48,7.23-9.49,78.99-91.41,158.01-182.79,237.02-274.19,1.05-1.22,2.07-2.47,3.26-3.89-1.72-1.1-3.22-.68-4.61-.65-56.62,1.55-113.24,3.13-169.86,4.71-7.7.21-15.37-.15-22.72-2.62-13.38-4.48-23.96-12.21-26.96-26.83-3.27-15.96.43-30.2,13.12-41.18,10.63-9.19,23.36-13.34,37.22-13.86,45.95-1.73,91.91-3.29,137.86-4.93,43.46-1.55,86.91-3.1,130.37-4.67,4.34-.16,8.65-.07,12.97.4,21.03,2.31,32.59,13.57,34.99,34.46,2.04,17.79-2.57,33.52-14.41,47.25-81.28,94.28-162.45,188.64-243.67,282.97-1.08,1.25-2.26,2.41-3.4,3.62-2.99.03-6.03-.25-8.97.13-13.64,1.77-27.35,2.61-41.04,3.82-10.07.89-20.16,1.51-30.25,2.17-16.04,1.05-32.05,2.68-48.15,2.76Z"/>
    <path class="cls-10" d="M1200.69,671.89c16.1-.08,32.1-1.71,48.15-2.76,10.09-.66,20.18-1.28,30.25-2.17,13.68-1.21,27.4-2.06,41.04-3.82,2.95-.38,5.98-.1,8.97-.13-.57.98-1.13,1.97-2.12,3.67,3.89,0,7.29.02,10.7,0,56.48-.3,112.96-.67,169.44-.87,12.47-.04,25-1.31,37.39,1.01,3.42.64,6.86,1.47,10.12,2.68,16.73,6.17,27.56,17.27,28.63,35.87,1.09,18.94-5.71,33.88-22.97,43.12-9.92,5.31-20.62,7.51-31.77,7.49-96.31-.2-192.61-.43-288.92-.71-8.54-.02-16.9-1.39-25.01-4.22-15.18-5.3-23.63-15.95-25.92-31.81-2.51-17.47.74-33.4,12.01-47.34Z"/>
    <path class="cls-1" d="M824.96,658.07c15.14-17.37,21.12-38.26,22.76-60.62,5.85-79.75,11.54-159.51,17.25-239.28,2.3-32.07,28.23-53.33,59.94-49.04,19.91,2.69,33.46,17.98,33.95,38.84.33,14.34-1.46,28.61-2.37,42.9-2.75,43.06-5.57,86.12-8.66,129.16-2.17,30.23-2.94,60.58-6.97,90.67-2.44,18.22-7.05,35.92-14.13,52.93-.76,1.83-1.83,3.52-2.76,5.28-9.41-.74-18.84-1.33-28.23-2.26-14.48-1.45-28.95-3.04-43.4-4.76-9.15-1.09-18.38-1.65-27.39-3.82Z"/>
    <path class="cls-10" d="M824.96,658.07c9,2.17,18.24,2.73,27.39,3.82,14.45,1.72,28.92,3.31,43.4,4.76,9.39.94,18.82,1.52,28.23,2.26.31,1.83-.9,3.15-1.61,4.6-16.81,34.43-43.1,59.31-78.3,73.69-55.45,22.65-112.45,24.5-169.09,5.62-50.57-16.86-77.99-54.05-85-106.56-1.56-11.73-2.51-23.51-1.64-35.36,22.09,6.26,44.34,11.89,66.72,17.02,8.49,1.95,16.85,4.69,25.69,4.84.14.3.35.58.42.9,6.84,29.63,26.63,44.55,55.68,48.7,17.49,2.5,34.86,1.78,51.98-2.97,13.95-3.88,25.84-11.23,36.14-21.3Z"/>
    <path class="cls-1" d="M680.74,632.74c-8.84-.14-17.2-2.89-25.69-4.84-22.38-5.12-44.63-10.75-66.72-17.02-.15-14.85,1.81-29.57,3.06-44.32,3.74-44.15,7.68-88.27,11.55-132.41,2.03-23.23,3.85-46.48,6.14-69.68,2.66-26.95,23.18-46.13,49.27-46.54,24.49-.39,40.65,14.89,40.35,39.42-.18,14.96-2,29.9-3.21,44.84-3.83,47.15-7.73,94.29-11.6,141.43-1.5,18.26-2.98,36.52-4.53,54.78-.98,11.51-.48,22.95,1.39,34.34Z"/>
    <path class="cls-10" d="M518.95,589.93c-4.4,19.42-11.73,37.77-20.62,55.51-9.31,18.57-20.91,35.6-35.1,50.79-2.37,2.54-2.21,3.96.02,6.43,9.04,10.01,17.64,20.43,26.81,30.33,7.17,7.73,8.49,16.3,5.25,25.88-3.53,10.43-10.11,18.61-18.92,25.13-7.7,5.69-22.78,6.7-31.69-2.47-11.74-12.08-22.34-25.15-33.46-37.76-2.34-2.66-3.97-3.35-7.4-1.56-31.16,16.29-64.56,22.32-99.47,21.09-25.16-.89-49.77-4.64-72.78-15.4-40.38-18.88-64.73-51.13-76.51-93.44-9.28-33.3-10.63-67.31-7.86-101.56,2.82-34.93,10.18-68.79,24.76-100.84,3.78-8.31,7.52-16.66,12.81-24.18,13.05,8.55,26.04,17.2,39.18,25.6,8.65,5.53,17.18,11.3,26.47,15.77-1.17,2.93-2.34,5.86-3.51,8.79-13.44,33.71-17.42,68.93-16.29,104.87.63,20.11,4.18,39.7,12.25,58.31,8.04,18.54,21.15,31.87,40.39,38.4,22.56,7.65,45.46,7.36,68.46,1.73,3.56-.87,3.44-1.86,1.25-4.36-8.02-9.14-15.82-18.48-23.8-27.65-4.88-5.6-6.25-12.01-4.78-19.11,2.07-10,7.75-17.89,14.76-25.02,10.59-10.77,28.62-12.34,39.87,1.65,8.23,10.24,17.56,19.6,26.2,29.53,2.34,2.69,3.4,2.52,5.27-.41,7.38-11.59,13.05-23.94,17.54-36.9,4.31-12.45,6.76-25.37,9.82-38.13.94.29,1.91.52,2.83.88,25.84,10.07,51.86,19.62,78.27,28.1Z"/>
    <path class="cls-1" d="M518.95,589.93c-26.41-8.47-52.43-18.03-78.27-28.1-.92-.36-1.89-.59-2.83-.88,1.81-15.03,4.07-30,4.35-45.18.41-22-1.68-43.58-10.36-64.07-9.95-23.48-25.99-41.04-51.4-47.04-37.67-8.89-72.03-1.76-101.35,24.68-12.42,11.21-21.25,25.07-28.66,39.91-9.29-4.47-17.82-10.24-26.47-15.77-13.15-8.4-26.13-17.05-39.18-25.6,14.04-25.11,33.03-45.81,56.17-62.74,39.37-28.8,83.99-39.83,132.15-38.64,26.12.65,51.27,5.65,74.61,17.85,40.36,21.1,63.82,55.23,75.19,98.49,9.16,34.86,9.24,70.14,4.55,105.59-1.85,14.02-4.27,27.95-8.49,41.5Z"/>
    <path class="cls-1" d="M1027.27,673.91c1.69-28.25,3.34-56.51,5.07-84.76,3.16-51.69,6.36-103.39,9.55-155.08,1.71-27.76,3.01-55.55,5.21-83.27,2.9-36.58,35.8-55.53,68.53-46.51,17.39,4.8,28.31,20.47,28.09,40.36-.17,15.31-1.41,30.6-2.26,45.9-3.17,57.03-6.36,114.06-9.57,171.09-2.13,37.74-4.3,75.47-6.46,113.2-32.72-.34-65.45,1.22-98.15-.94Z"/>
    <path class="cls-10" d="M1027.27,673.91c32.7,2.16,65.43.6,98.15.94-.74,16.09-.05,32.39-3.53,48.17-8.54,38.68-45.73,46.72-70.91,36.47-17.99-7.32-25.74-22.45-26.15-41.26-.32-14.8,1.36-29.55,2.45-44.31Z"/>
    <path class="cls-9" d="M250.43,469.25c7.41-14.84,16.24-28.7,28.66-39.91,29.31-26.45,63.68-33.58,101.35-24.68,25.41,6,41.45,23.55,51.4,47.04,8.68,20.49,10.77,42.07,10.36,64.07-.28,15.18-2.53,30.16-4.35,45.18-3.06,12.76-5.51,25.68-9.82,38.13-4.48,12.96-10.16,25.31-17.54,36.9-1.86,2.93-2.92,3.1-5.27.41-8.64-9.92-17.97-19.28-26.2-29.53-11.25-14-29.28-12.42-39.87-1.65-7.01,7.13-12.69,15.02-14.76,25.02-1.47,7.1-.1,13.5,4.78,19.11,7.98,9.18,15.78,18.51,23.8,27.65,2.19,2.5,2.32,3.49-1.25,4.36-23,5.63-45.9,5.92-68.46-1.73-19.24-6.53-32.34-19.86-40.39-38.4-8.08-18.61-11.62-38.2-12.25-58.31-1.12-35.95,2.85-71.16,16.29-104.87,1.17-2.93,2.34-5.86,3.51-8.79ZM375.88,596.96c.36.35.73.69,1.09,1.04,9.49,10.03,19.04,20,28.41,30.14,2.39,2.58,3.4,2,4.92-.75,4.03-7.3,7.74-14.74,10.65-22.55,11.49-30.77,16.24-62.78,16.59-95.43.21-19.77-2.69-39.14-10.68-57.52-1.58-3.63-3.87-5.84-7.52-7.32-15.72-6.36-32.03-7.35-48.61-5.54-20.71,2.27-39.3,9.64-54.83,23.91-13.97,11.44-23.55,26.11-30.95,42.33-13.59,29.78-18.34,61.39-19.09,93.78-.55,23.82,1.77,47.21,10.69,69.61,1.14,2.87,2.79,4.55,5.67,5.69,10.37,4.09,21.19,5.75,32.2,6.29,10.79.54,21.49-.29,32.76-3.08-7.53-8.82-14.63-17.15-21.74-25.47-5.31-6.21-7.19-13.29-5.86-21.37,1.72-10.45,7.12-18.88,14.03-26.54,9.32-10.33,24.07-17.67,42.28-7.18l-.04-.04Z"/>
    <path class="cls-2" d="M315.91,462.94c15.53-14.27,34.12-21.64,54.83-23.91,16.58-1.82,32.89-.83,48.61,5.54,3.65,1.48,5.94,3.69,7.52,7.32,7.99,18.37,10.89,37.75,10.68,57.52-.35,32.66-5.1,64.66-16.59,95.43-2.92,7.81-6.62,15.25-10.65,22.55-1.52,2.75-2.53,3.33-4.92.75-9.37-10.14-18.93-20.11-28.41-30.14-.36-.35-.73-.69-1.09-1.03,0,0,.04.04.04.04.36-1.78-.51-3.24-1.26-4.72-14.94-29.54-29.21-59.4-42.34-89.78-5.66-13.1-11.86-25.99-16.4-39.56Z"/>
    <path class="cls-8" d="M315.91,462.94c4.54,13.57,10.74,26.46,16.4,39.56,13.13,30.38,27.4,60.24,42.34,89.78.75,1.48,1.61,2.94,1.26,4.72-18.21-10.49-32.96-3.15-42.28,7.18-6.92,7.66-12.31,16.09-14.03,26.54-1.33,8.09.55,15.16,5.86,21.37,7.11,8.32,14.21,16.64,21.74,25.47-11.27,2.79-21.97,3.62-32.76,3.08-11.01-.55-21.84-2.2-32.2-6.29-2.89-1.14-4.53-2.82-5.67-5.69-8.92-22.4-11.24-45.79-10.69-69.61.75-32.39,5.5-64.01,19.09-93.78,7.4-16.22,16.98-30.89,30.95-42.33Z"/>
    <path class="cls-8" d="M375.88,596.96c.36.34.73.69,1.09,1.03-.36-.34-.73-.69-1.09-1.03Z"/>
  </g>
</svg>