<?xml version="1.0" encoding="UTF-8"?>
<svg id="Layer_2" data-name="Layer 2" xmlns="http://www.w3.org/2000/svg" viewBox="0 0 105.1 106.13">
  <defs>
    <style>
      .cls-1 {
        fill: #000;
        stroke-width: 0px;
      }
    </style>
  </defs>
  <g id="SLIDE_2" data-name="SLIDE 2">
    <g>
      <path class="cls-1" d="M64.3,71.87s0,0,0,.18c0,.3,0,.5,0,.66,0,.12,0,.26,0,3.13,0,3.15,0,3.14,0,3.15.04.55.25,2.71,1.59,4.82.44.68,2.03,3.02,4.78,3.98,4.69,1.63,9.28-1.62,10.35-2.39,1.93-1.38,3.38-3.52,6.27-7.79.62-.91,2.47-3.71,3.47-5.5.11-.2.29-.47.61-1.04.93-1.68,1.27-2.45,1.59-2.39.5.1.25,2.56.8,5.57.46,2.56,1.13,6.27,3.91,7.8,1.38.76,3.61,1.18,5.16.17,1.91-1.24,2.03-4.16,2.25-9.07.03-.67.01-.62,0-4.45-.02-5.8.03-5.47,0-7.41-.13-7.72-.83-9.31-1.48-10.38-.49-.81-1.33-2.14-2.97-2.97-3.1-1.56-6.72-.05-6.82,0-.03.01-.06.03-.06.03-1.14.52-3.04,1.61-7.96,7.96-3.91,5.05-5.74,8.26-6.37,7.96-.54-.25.63-2.61.8-7.17.12-3.4-.39-5.76-.8-7.17-.63-2.18-1.04-3.61-2.39-4.78-1.86-1.6-4.2-1.6-5.57-1.59-3.48.01-6,1.62-7.17,2.39-2.03,1.34-3.4,2.9-4.17,3.92-.3.4-.51.71-.61.85-3.96,5.94-12.22,20.46-13.74,19.83-.82-.34.41-5.11,1.43-9.07,1.58-6.1,2.77-8.48,4.78-15.13,2.38-7.87,2.97-10.65,1.59-13.54-.74-1.55-2.29-3.64-4.78-4.78-2.09-.96-4.03-.88-5.57-.8-3.09.16-5.37,1.15-6.37,1.59h0c-4.2,2.84-8.73,6.33-13.32,10.58-2.16,2-4.13,3.99-5.93,5.93-1.3,1.22-1.88,2.92-1.48,4.45.41,1.57,1.77,2.61,2.97,2.97,2.12.63,4.3-.8,8.9-4.45,7.03-5.58,9.58-9.4,10.38-8.9.75.47-1.16,4.05-4.33,15.29-.03.11-.09.33-.21.77-4.19,15.01-6.29,22.62-6.16,27.9.11,4.49.21,11.31,4.78,14.33,3.43,2.27,7.74,1.28,8.89,1.02,14.4-3.31,22.74-26.63,22.96-26.5Z"/>
      <g>
        <circle class="cls-1" cx="19.85" cy="86.28" r="19.85"/>
        <circle class="cls-1" cx="48.64" cy="11.83" r="11.83"/>
      </g>
    </g>
  </g>
</svg>