<?xml version="1.0" encoding="UTF-8"?>
<svg id="SLIDE_3" data-name="SLIDE 3" xmlns="http://www.w3.org/2000/svg" viewBox="0 0 1024 1024">
  <defs>
    <style>
      .cls-1 {
        fill: #e8b431;
      }

      .cls-1, .cls-2 {
        stroke-width: 0px;
      }

      .cls-2 {
        fill: #5761db;
      }
    </style>
  </defs>
  <path class="cls-2" d="M622.61,689.07s.01.05-.03,1.74c-.08,2.85,0,4.73.01,6.25,0,1.1.03,2.46.02,29.5,0,29.64-.01,29.57,0,29.62.4,5.21,2.33,25.51,15.01,45.36,4.11,6.43,19.08,28.48,44.99,37.49,44.21,15.38,87.4-15.28,97.47-22.49,18.18-13.02,31.82-33.14,59.09-73.37,5.82-8.59,23.21-34.89,32.66-51.76,1.06-1.9,2.74-4.47,5.72-9.83,8.77-15.79,11.96-23.07,15-22.49,4.74.9,2.38,24.14,7.5,52.48,4.35,24.12,10.65,59,36.84,73.48,12.98,7.17,33.99,11.08,48.58,1.62,18.01-11.68,19.09-39.18,21.23-85.38.29-6.35.1-5.87,0-41.88-.15-54.58.3-51.47,0-69.8-1.2-72.72-7.81-87.7-13.96-97.72-4.65-7.59-12.49-20.17-27.92-27.92-29.17-14.65-63.27-.49-64.25-.05-.26.12-.52.24-.52.24-10.76,4.94-28.63,15.2-74.98,74.98-36.84,47.52-54.01,77.77-59.98,74.98-5.05-2.36,5.94-24.53,7.5-67.48,1.16-32.02-3.69-54.25-7.5-67.48-5.9-20.52-9.78-34-22.49-44.99-17.47-15.1-39.51-15.03-52.48-15-32.72.1-56.47,15.26-67.48,22.49-19.16,12.59-31.98,27.28-39.28,36.95-2.83,3.75-4.83,6.72-5.71,8.04-37.26,55.92-115.04,192.65-129.36,186.73-7.77-3.21,3.85-48.1,13.5-85.41,14.86-57.43,26.06-79.87,44.99-142.46,22.41-74.13,27.97-100.3,15-127.46-6.96-14.58-21.54-34.23-44.99-44.99-19.68-9.03-37.92-8.27-52.48-7.5-29.1,1.54-50.61,10.84-59.98,15h0c-39.55,26.79-82.24,59.6-125.43,99.66-20.3,18.83-38.88,37.55-55.84,55.84-12.24,11.51-17.71,27.52-13.96,41.88,3.86,14.8,16.66,24.58,27.92,27.92,19.97,5.93,40.49-7.56,83.76-41.88,66.19-52.51,90.22-88.52,97.72-83.76,7.04,4.46-10.95,38.17-40.76,143.93-.3,1.07-.88,3.12-2.02,7.21-39.47,141.29-59.19,212.95-57.96,262.71,1.04,42.32,1.97,106.54,44.99,134.96,32.32,21.35,72.88,12.08,83.68,9.6,135.61-31.13,214.12-250.78,216.23-249.54Z"/>
  <g>
    <circle class="cls-1" cx="204.11" cy="824.72" r="186.94"/>
    <circle class="cls-1" cx="475.2" cy="123.71" r="111.38"/>
  </g>
</svg>